<svg xmlns="http://www.w3.org/2000/svg" width="512" height="512" viewBox="0 0 512 512" shape-rendering="crispEdges">
  <rect x="232" y="16" width="64" height="32" fill="#9a9a9a"/>
  <rect x="200" y="48" width="128" height="96" fill="#9a9a9a"/>
  <rect x="328" y="80" width="32" height="32" fill="#566f76"/>
  <rect x="296" y="144" width="96" height="64" fill="#6f6f6f"/>
  <rect x="328" y="176" width="96" height="32" fill="#6f6f6f"/>
  <rect x="232" y="144" width="96" height="48" fill="#8f8f8f"/>
  <rect x="200" y="192" width="160" height="160" fill="#9a9a9a"/>
  <rect x="168" y="224" width="64" height="96" fill="#9a9a9a"/>
  <rect x="136" y="256" width="64" height="64" fill="#9a9a9a"/>
  <rect x="328" y="224" width="64" height="96" fill="#9a9a9a"/>
  <rect x="360" y="256" width="64" height="48" fill="#9a9a9a"/>
  <rect x="232" y="352" width="48" height="112" fill="#9a9a9a"/>
  <rect x="184" y="432" width="96" height="48" fill="#9a9a9a"/>
  <rect x="296" y="352" width="48" height="128" fill="#9a9a9a"/>
  <rect x="344" y="464" width="64" height="32" fill="#9a9a9a"/>
  <rect x="232" y="96" width="24" height="24" fill="#ffd25a"/>
  <rect x="264" y="144" width="96" height="32" fill="#5e5e5e"/>
  <rect x="296" y="176" width="64" height="32" fill="#5e5e5e"/>
</svg>
