<svg xmlns="http://www.w3.org/2000/svg" width="32" height="40" viewBox="0 0 32 40" shape-rendering="crispEdges">
  <rect x="13" y="2" width="6" height="3" fill="#737373"/>
  <rect x="12" y="5" width="8" height="2" fill="#d9d9d9"/>
  <rect x="12" y="7" width="8" height="8" fill="#f5f5f5"/>
  <rect x="11" y="15" width="10" height="3" fill="#d9d9d9"/>
  <rect x="8" y="18" width="16" height="3" fill="#d9d9d9"/>
  <rect x="7" y="21" width="18" height="14" fill="#f5f5f5"/>
  <rect x="9" y="28" width="14" height="7" fill="#737373"/>
  <rect x="9" y="24" width="14" height="4" fill="#ffffff"/>
  <rect x="11" y="22" width="4" height="2" fill="#ffffff"/>
  <rect x="18" y="23" width="3" height="2" fill="#ffffff"/>
  <rect x="11" y="29" width="10" height="4" fill="#8f8f8f"/>
  <rect x="12" y="25" width="8" height="6" fill="#efefef"/>
  <rect x="13" y="26" width="6" height="1" fill="#737373"/>
  <rect x="14" y="28" width="4" height="2" fill="#9b9b9b"/>
  <rect x="7" y="21" width="2" height="14" fill="#737373"/>
  <rect x="23" y="21" width="2" height="14" fill="#737373"/>
  <rect x="8" y="35" width="16" height="2" fill="#737373"/>
  <rect x="11" y="15" width="2" height="6" fill="#737373"/>
  <rect x="19" y="15" width="2" height="6" fill="#737373"/>
  <rect x="12" y="7" width="2" height="8" fill="#737373"/>
  <rect x="18" y="7" width="2" height="8" fill="#737373"/>
  <rect x="13" y="10" width="5" height="1" fill="#ffffff"/>
  <rect x="20" y="22" width="2" height="12" fill="#ffffff"/>
</svg>
